# xmcd
# 
# Track frame offsets:
#     182
#     11752
#     26740
#     39740
#     52940
#     74927
#     93955
#     106175
#     115757
#     131342
#     170222
#     180522
#     190700
#     200720
#     210677
#     222145
#     242400
#     250992
#     266102
#     276080
# 
# Disc length: 3955
# 
# Revision: 1
# Processed by: cddbd v1.5.2PL0 Copyright (c) Steve Scherf et al.
# Submitted via: fre:ac v1.0.17
# 
DISCID=2a0f7114
DTITLE=Various Artist - Bay Blue
DYEAR=1992
DGENRE=Blues
TTITLE0=Hi Tide Harris - Messaround
TTITLE1=Gary Smith Blues Band - Blues For Mr P
TTITLE2=Ron Thompson - Is That Any Way To Treat Your Man
TTITLE3=Rober Lowery - Crossroads Blues
TTITLE4=Sonny Rhodes - The Highway Is Like A Woman
TTITLE5=Gary Smith Blues Band - Solid Sender
TTITLE6=Luther Tucker And Gary Smith Blues Band - Tuckerology
TTITLE7=Luther Tucker-Charlie Musslewhite - Canadian Sunset
TTITLE8=Hi Tide Harris-Gary Smith-Skip Rose - Charlie Stone
TTITLE9=Luther Tucker-Charlie Musslewhite - Mean Old World
TTITLE10=Hi Tide Harris - Tipitina
TTITLE11=Sonny Rhodes - Keep Holding On
TTITLE12=Hi Tide Harris-Andy Just - Never Will Forget Your Love
TTITLE13=Robert Lowery - Gambling Man Blues
TTITLE14=Ron Thompson - Blue Chariot
TTITLE15=Ron Thompson - Paycheck Blues
TTITLE16=Robert Lowery - Step It Up And Go
TTITLE17=Robert Lowery - Tennessee Blues
TTITLE18=Robert Lowery - If I Die 
TTITLE19=Luther Tucker-Charlie Musslewhite - Sweet Home Chicago
EXTD=
EXTT0=
EXTT1=
EXTT2=
EXTT3=
EXTT4=
EXTT5=
EXTT6=
EXTT7=
EXTT8=
EXTT9=
EXTT10=
EXTT11=
EXTT12=
EXTT13=
EXTT14=
EXTT15=
EXTT16=
EXTT17=
EXTT18=
EXTT19=
PLAYORDER=
